<?xml version="1.0" encoding="UTF-8"?>
<svg id="Camada_1" xmlns="http://www.w3.org/2000/svg" version="1.1" viewBox="0 0 2000 1540.515">
  <!-- Generator: Adobe Illustrator 30.0.0, SVG Export Plug-In . SVG Version: 2.1.1 Build 123)  -->
  <defs>
    <style>
      .st0 {
        fill: #525663;
      }

      .st1 {
        fill: #f74211;
      }

      .st2 {
        fill: #bf3616;
      }
    </style>
  </defs>
  <g>
    <polygon class="st2" points="1337.164 262.96 1337.164 266.497 1076.805 416.686 1076.805 262.96 1337.164 262.96"/>
    <g>
      <rect class="st1" x="1076.805" y="416.686" width="260.36" height="260.24"/>
      <polygon class="st2" points="1076.805 416.686 1076.805 676.926 1073.266 676.926 923.075 416.686 1076.805 416.686"/>
    </g>
    <g>
      <polygon class="st2" points="1076.805 262.96 923.075 262.96 923.075 2.597 926.614 2.597 1076.805 262.96"/>
      <rect class="st1" x="1076.805" y="2.597" width="260.36" height="260.363"/>
    </g>
    <g>
      <rect class="st1" x="662.836" y="416.686" width="260.24" height="260.24"/>
      <polygon class="st2" points="923.075 262.96 923.075 416.686 662.836 416.686 662.836 413.149 923.075 262.96"/>
      <rect class="st1" x="662.836" y="2.597" width="260.24" height="260.363"/>
    </g>
  </g>
  <g>
    <polygon class="st0" points="1189.037 1537.918 1271.921 1537.918 1501.045 1018.483 1418.161 1018.483 1189.037 1537.918"/>
    <polygon class="st0" points="1289.919 1309.213 1161.784 1018.483 1078.9 1018.483 1207.034 1309.213 1289.919 1309.213"/>
    <rect class="st0" x="10.076" y="1018.483" width="76.036" height="519.435"/>
    <path class="st0" d="M995.448,1018.483h-279.954c-36.333,0-65.786,29.454-65.786,65.786v158.754c0,36.234,29.299,65.646,65.532,65.786l260.56,1.003c5.19,0,9.398,4.208,9.398,9.398v133.274c0,5.19-4.208,9.398-9.398,9.398h-240.658c-5.191,0-9.398-4.208-9.398-9.398v-66.637h-76.036v86.286c0,36.332,29.453,65.786,65.786,65.786h279.954c36.332,0,65.786-29.454,65.786-65.786v-172.57c0-36.332-29.454-65.786-65.786-65.786h-260.306c-5.191,0-9.398-4.208-9.398-9.398v-120.462c0-5.19,4.207-9.398,9.398-9.398h240.658c5.19,0,9.398,4.208,9.398,9.398v66.606h76.036v-86.253c0-36.332-29.454-65.786-65.786-65.786Z"/>
    <polygon class="st0" points="497.636 1499.288 285.552 1018.483 162.147 1018.483 162.147 1537.918 238.182 1537.918 238.182 1098.996 431.792 1537.918 573.672 1537.918 573.672 1018.483 497.636 1018.483 497.636 1499.288"/>
    <polygon class="st0" points="1989.924 1018.483 1540.379 1018.483 1506.839 1094.518 1710.385 1094.518 1710.385 1537.918 1786.42 1537.918 1786.42 1094.518 1956.426 1094.518 1989.924 1018.483"/>
  </g>
</svg>